<svg width="110" height="154" viewBox="0 0 110 154" fill="none" xmlns="http://www.w3.org/2000/svg">
<path d="M108.108 40.0073L69.7829 1.68173C68.6879 0.586708 67.5928 0.0391998 65.9503 0.0391998H11.1994C5.17685 0.0391998 0.249268 4.96678 0.249268 10.9894V142.391C0.249268 148.414 5.17685 153.342 11.1994 153.342H98.8008C104.823 153.342 109.751 148.414 109.751 142.391V43.8399C109.751 42.1974 109.203 41.1023 108.108 40.0073ZM65.9503 13.1794L96.6108 43.8399H65.9503V13.1794ZM98.8008 142.391H11.1994V10.9894H55.0001V43.8399C55.0001 49.8625 59.9277 54.7901 65.9503 54.7901H98.8008V142.391Z" fill="#E10F27"/>
<path d="M22.1497 109.541H87.8507V120.491H22.1497V109.541ZM22.1497 76.6904H87.8507V87.6406H22.1497V76.6904Z" fill="#E10F27"/>
</svg>
