<svg width="172" height="119" viewBox="0 0 172 119" fill="none" xmlns="http://www.w3.org/2000/svg">
<path d="M71.2801 44.1866C71.2801 53.192 63.9791 60.4909 54.9758 60.4909C45.9704 60.4909 38.6715 53.1916 38.6715 44.1866C38.6715 35.1816 45.9708 27.8823 54.9758 27.8823C63.9795 27.8823 71.2801 35.1816 71.2801 44.1866Z" fill="#E10F27"/>
<path d="M27.8034 82.2304V89.7032C27.8034 90.6083 28.4826 91.515 29.6152 91.515H80.3396C81.2447 91.515 82.1514 90.8357 82.1514 89.7032V82.2304C82.1514 73.1732 74.9042 65.9261 65.8471 65.9261H44.3349C35.0485 65.9277 27.8034 73.1732 27.8034 82.2304Z" fill="#E10F27"/>
<path d="M141.706 28.1096C142.838 28.1096 143.743 29.0147 143.743 30.1473V38.2978C143.743 39.4304 142.838 40.3355 141.706 40.3355H95.5102C94.3777 40.3355 93.4726 39.4304 93.4726 38.2978V30.1457C93.4726 29.0131 94.3777 28.108 95.5102 28.108L141.706 28.1096Z" fill="#E10F27"/>
<path d="M143.743 63.6614V55.5092C143.743 54.3767 142.838 53.4715 141.706 53.4715H95.5102C94.3777 53.4715 93.4726 54.3767 93.4726 55.5092V63.6614C93.4726 64.7939 94.3777 65.699 95.5102 65.699H141.706C142.838 65.699 143.743 64.7939 143.743 63.6614Z" fill="#E10F27"/>
<path d="M143.743 80.7582V88.9103C143.743 90.0429 142.838 90.948 141.706 90.948H95.5102C94.3777 90.948 93.4726 90.0429 93.4726 88.9103V80.7582C93.4726 79.6256 94.3777 78.7205 95.5102 78.7205H141.706C142.838 78.7205 143.743 79.6256 143.743 80.7582Z" fill="#E10F27"/>
<path fill-rule="evenodd" clip-rule="evenodd" d="M6.74268 118.01H165.257C168.655 118.01 171.372 115.292 171.372 111.895V7.04987C171.372 3.65226 168.653 0.935364 165.257 0.935364H6.74352C3.34744 0.935364 0.628174 3.65226 0.628174 7.04987V111.895C0.628174 115.292 3.34507 118.01 6.74268 118.01ZM12.63 67.738V106.008H159.37V67.738H159.142V13.164H12.858V67.738H12.63Z" fill="#E10F27"/>
</svg>
